<svg xmlns="http://www.w3.org/2000/svg" version="1.1" xmlns:xlink="http://www.w3.org/1999/xlink" width="355" height="357"><svg xmlns="http://www.w3.org/2000/svg" xmlns:xlink="http://www.w3.org/1999/xlink" width="355" height="357" viewBox="0 0 355 357"><path fill="white" d="M169.826 357C168.267 356.315 161.027 355.926 158.7 355.657C138.257 353.295 118.372 347.674 99.9264 338.497C57.2985 317.656 24.8126 280.586 9.74656 235.592C-5.30531 190.792 -1.90184 141.843 19.2052 99.5579C61.7252 14.6087 163.423 -22.1325 250.468 16.5229C298.742 37.9605 332.148 77.1509 348.387 127.138C350.451 133.564 352.035 140.135 353.126 146.796C353.592 149.508 354.16 155.501 355 157.81L355 200.62C354.266 202.322 353.707 207.411 353.389 209.49C351.869 219.414 349.132 228.886 345.862 238.363C329.49 284.378 294.961 321.664 250.337 341.517C235.88 347.868 220.668 352.335 205.073 354.809C201.724 355.369 188.238 356.194 186.334 357L169.826 357Z"></path><defs><linearGradient id="SvgjsLinearGradient1005" gradientUnits="userSpaceOnUse" x1="181.04318" y1="189.48865" x2="147.526" y2="92.397598"><stop offset="0" stop-color="#137F69"></stop><stop offset="1" stop-color="#4CBE94"></stop></linearGradient></defs><path fill="url(#gradient_0)" d="M24.5059 210.697C23.9966 208.857 23.957 206.654 23.6518 204.75C22.0224 196.475 22.2894 188.153 22.0209 179.875C21.359 159.475 25.4562 138.658 33.092 119.752C35.8089 113.024 41.2046 103.558 44.9669 96.9778C51.2191 86.3876 59.181 77.8622 67.6182 69.1617C77.071 59.4138 84.8253 53.4205 96.4063 46.4425C118.357 32.9219 143.17 24.731 168.856 22.5262C199.835 20.0616 227.467 26.9514 254.44 41.9916C260.637 45.447 268.201 49.5459 273.576 54.1368C278.654 57.267 281.963 60.3635 286.341 64.1833C295.318 72.015 302.424 80.599 309.338 90.2809C312.089 94.1335 315.035 97.9479 317.2 102.231C309.42 104.3 301.975 105.582 294.202 107.444C281.197 110.69 268.302 114.363 255.538 118.456C237.796 124.37 220.285 130.955 203.041 138.196C153.176 158.824 103.24 184.896 60.4746 218.061C52.8904 223.943 39.4753 234.684 33.3893 242.149C31.3224 236.192 23.8927 216.11 24.5059 210.697Z"></path><path fill="#99D2B4" d="M24.5059 210.697C23.9966 208.857 23.957 206.654 23.6518 204.75C22.0224 196.475 22.2894 188.153 22.0209 179.875C21.359 159.475 25.4562 138.658 33.092 119.752C35.8089 113.024 41.2046 103.558 44.9669 96.9778C51.2191 86.3876 59.181 77.8622 67.6182 69.1617C77.071 59.4138 84.8253 53.4205 96.4063 46.4425C118.357 32.9219 143.17 24.731 168.856 22.5262C199.835 20.0616 227.467 26.9514 254.44 41.9916C260.637 45.447 268.201 49.5459 273.576 54.1368L273.379 54.1952C270.468 55.0299 262.329 56.2883 258.841 57.0274C249.319 59.1251 239.867 61.534 230.503 64.2501C210.149 70.2996 190.045 77.1823 170.386 85.2239C163.93 87.8647 158.026 91.1535 151.703 93.9881C132.074 102.787 113.875 113.972 96.132 126.071C94.657 127.077 93.1725 128.092 91.7522 129.163C82.4465 136.308 73.6222 144.059 65.3365 152.366C58.1493 159.429 50.8941 167.189 44.9686 175.326C37.2006 185.994 29.4962 198.463 24.5059 210.697Z"></path><path fill="#133341" d="M324.889 122.586C325.403 122.497 325.212 122.519 325.758 122.657C326.636 123.735 328.285 129.31 328.765 130.86C334.567 149.588 336.29 167.019 335.455 186.46C327.109 186.527 318.776 187.145 310.512 188.311C286.269 191.932 257.816 202.257 236.509 214.75C197.958 237.355 166.266 272.616 147.968 313.43C145.324 319.326 142.403 326.084 140.761 332.24C139.285 331.487 135.773 330.396 134.108 329.832C130.266 328.56 126.45 327.208 122.664 325.779C108.295 320.374 94.7473 312.999 82.4083 303.866C65.1645 290.914 55.2451 278.934 42.7739 261.876C63.2794 239.077 94.1848 219.302 120.432 203.731C171.934 173.352 227.002 149.471 284.376 132.634C294.139 129.776 303.657 127.024 313.63 124.944C317.382 124.161 321.091 123.175 324.889 122.586Z"></path><path fill="#133341" d="M327.624 207.857C329.295 207.729 331.754 207.744 333.485 207.702C332.128 215.476 329.965 221.346 327.621 228.632C318.478 257.046 302.646 280.88 279.762 300.088C271.779 306.789 263.539 312.946 253.997 317.928C231.636 329.602 205.354 335.733 180.198 336.647C177.364 336.75 172.459 336.303 169.561 336.06C167.154 335.942 164.44 335.66 162.014 335.463C167.817 313.131 182.689 289.492 198.13 272.381C220.537 247.224 249.056 228.274 280.93 217.365C296.476 211.962 311.134 208.693 327.624 207.857Z"></path></svg><style>@media (prefers-color-scheme: light) { :root { filter: none; } }
@media (prefers-color-scheme: dark) { :root { filter: none; } }
</style></svg>