<?xml version="1.0" encoding="utf-8"?>
<!-- Generator: Adobe Illustrator 27.9.0, SVG Export Plug-In . SVG Version: 6.00 Build 0)  -->
<svg version="1.1" id="_x3C_Layer_x3E_" xmlns="http://www.w3.org/2000/svg" xmlns:xlink="http://www.w3.org/1999/xlink" x="0px"
	 y="0px" viewBox="0 0 1550.2 1439.5" style="enable-background:new 0 0 1550.2 1439.5;" xml:space="preserve">
<style type="text/css">
	.st0{fill:#4E16A5;}
	.st1{fill:#671CC9;}
	.st2{opacity:0.4;fill:#671CC9;enable-background:new    ;}
	.st3{opacity:0.26;fill:#671CC9;enable-background:new    ;}
	.st4{fill:#05C5DB;}
	.st5{opacity:0.26;fill:url(#SVGID_1_);enable-background:new    ;}
	.st6{fill:#292969;}
	.st7{opacity:0.26;fill:url(#SVGID_00000149373981399754429410000012318180890560911748_);enable-background:new    ;}
	.st8{fill:#3D6ACC;}
	.st9{opacity:0.14;fill:url(#SVGID_00000060740600948517424850000016682039372608813503_);enable-background:new    ;}
	.st10{opacity:0.26;fill:url(#SVGID_00000126281790003821535990000012428807528651260803_);enable-background:new    ;}
	.st11{fill:#E3F5FF;}
	.st12{opacity:0.26;fill:url(#SVGID_00000116940510697077063990000002960749520965493401_);enable-background:new    ;}
	.st13{opacity:0.26;fill:url(#SVGID_00000166648332903597069560000006576754922279501486_);enable-background:new    ;}
	.st14{opacity:0.14;fill:url(#SVGID_00000034777346361428944870000012186903517007274887_);enable-background:new    ;}
	.st15{opacity:0.14;fill:url(#SVGID_00000124136288036993473950000002795249695325300896_);enable-background:new    ;}
	.st16{opacity:0.26;fill:url(#SVGID_00000153677529718279399380000003835639267348585619_);enable-background:new    ;}
	.st17{fill:#F9F9F9;}
	.st18{opacity:0.63;fill:url(#SVGID_00000062870328493773097460000001404734835406911125_);enable-background:new    ;}
	.st19{opacity:0.63;fill:url(#SVGID_00000134238663013460343180000000050327992377138091_);enable-background:new    ;}
	.st20{fill:#EFF9FF;}
	.st21{fill:url(#SVGID_00000173882835273173281110000016798524951191499156_);}
	.st22{fill:#F1A17F;}
	.st23{fill:#F68987;}
	.st24{fill:#E87979;}
	.st25{fill:#0D1D7E;}
	.st26{fill:#171733;}
	.st27{fill:#FFFFFF;}
	.st28{opacity:0.55;fill:#E87979;enable-background:new    ;}
	.st29{fill:url(#SVGID_00000166666132426026690000000012743673499023072152_);}
	.st30{opacity:0.39;fill:#E87979;enable-background:new    ;}
	.st31{fill:#C5BEF4;}
	.st32{fill:#9C8EE9;}
	.st33{fill:#1C1C1C;}
	.st34{opacity:0.63;fill:url(#SVGID_00000114042708704659169600000008693008487705714085_);enable-background:new    ;}
	.st35{opacity:0.63;fill:url(#SVGID_00000041284602423887969730000007479305811444174518_);enable-background:new    ;}
	.st36{fill:#AC83ED;}
</style>
<path class="st0" d="M1386.2,748.3c0-36.9-22.6-69.2-56.5-87.4c-18.7-10-28.6-29-24-47.6c1.3-5.2,2-10.6,2-16.1
	c0-36.7-29.9-67.4-70-75.1c-10.6-2-17.7-10.5-16.7-19.8c0.5-4.1,0.6-8.1,0.1-11.4c-3.2-21.3-17.2-32.9-37.3-42.3
	c-10.3-4.9-15.4-15.1-12.5-25c1.4-4.8,2.3-9.9,2.4-15.2c1.2-39.2-23.4-55.4-40.4-62.6c-8.3-3.6-14.4-10.1-16.9-17.8
	c-6.6-21-29.7-36.1-56.6-34.6c-26.3,1.5-47.8,19.3-50.7,41.8c0,0.2,0,0.4-0.1,0.5c-0.9,7.7-8.6,13.4-17.6,13c-2.9-0.1-5.9-0.1-9,0.1
	c-33.3,2.4-60.1,25.6-62.4,54.3c-0.4,4.6-0.1,9,0.7,13.3c1.8,9.9-3.3,19.8-13.2,25.2c-18.7,10.2-33.3,25.5-41,43.7
	c-3,7-9.8,12.4-18.2,14.4c-37.5,9-65,38.5-65,73.6c0,9.4,2,18.5,5.6,26.8c5.6,12.9-1.6,27.2-16.4,32.5c-39.8,14.3-67.8,48-67.8,87.4
	c0,15.9,4.6,31,12.7,44.1c12.3,19.9,7.7,44.6-11.8,59.7c-27.5,21.4-44.8,52.3-44.8,86.7v42.6h736.6v-42.6
	c0-17.2-12.7-33.6-27.6-48.3c-16.3-16-17.4-39.4-3.7-57.1C1378.8,788.9,1386.2,769.4,1386.2,748.3L1386.2,748.3z"/>
<path class="st0" d="M855.6,832.1c0-42.4-20.5-79.6-51.3-100.5c-17-11.5-26-33.4-21.8-54.7c1.2-6,1.8-12.1,1.8-18.5
	c0-42.2-27.2-77.5-63.6-86.3c-9.6-2.3-16.1-12.1-15.2-22.8c0.4-4.8,0.6-9.3,0.1-13.1c-2.9-24.5-15.6-37.8-33.8-48.7
	c-9.4-5.6-14-17.4-11.3-28.7c1.3-5.6,2.1-11.4,2.2-17.4c1.1-45.1-21.2-63.6-36.7-72c-7.6-4.1-13.1-11.6-15.3-20.5
	c-6-24.1-27-41.5-51.4-39.7c-23.9,1.7-43.4,22.2-46,48c0,0.2,0,0.4-0.1,0.6c-0.8,8.9-7.8,15.4-16,15c-2.7-0.1-5.4-0.1-8.1,0.2
	c-30.3,2.7-54.5,29.4-56.7,62.4c-0.3,5.2-0.1,10.4,0.6,15.3c1.6,11.4-3,22.8-12,28.9c-17,11.7-30.2,29.4-37.2,50.3
	c-2.7,8.1-8.9,14.3-16.5,16.6c-34,10.3-59,44.3-59,84.6c0,10.9,1.8,21.3,5.1,30.8c5.1,14.8-1.5,31.2-14.9,37.3
	c-36.1,16.4-61.5,55.2-61.5,100.4c0,18.3,4.2,35.6,11.5,50.7c11.1,22.9,7,51.3-10.7,68.7c-25,24.6-40.7,60.1-40.7,99.7v48.9h668.8
	v-48.9c0-19.8-11.5-38.6-25.1-55.6c-14.8-18.4-15.8-45.3-3.4-65.6C848.9,878.7,855.6,856.3,855.6,832.1L855.6,832.1z"/>
<path class="st1" d="M951.9,855.2c0-37.9-18.3-71.2-45.9-89.9c-15.2-10.3-23.2-29.9-19.5-48.9c1-5.3,1.6-10.9,1.6-16.5
	c0-37.8-24.3-69.3-56.8-77.2c-8.6-2.1-14.4-10.8-13.6-20.4c0.4-4.3,0.5-8.3,0.1-11.7c-2.6-21.9-13.9-33.8-30.3-43.5
	c-8.4-5-12.5-15.6-10.1-25.7c1.2-5,1.8-10.2,2-15.6c1-40.3-19-56.9-32.8-64.4c-6.8-3.7-11.7-10.4-13.7-18.3
	c-5.4-21.5-24.1-37.1-45.9-35.5c-21.3,1.5-38.9,19.8-41.1,42.9c0,0.2,0,0.4-0.1,0.5c-0.7,7.9-7,13.8-14.3,13.4
	c-2.4-0.1-4.8-0.1-7.3,0.1c-27.1,2.4-48.8,26.3-50.7,55.8c-0.3,4.7-0.1,9.3,0.5,13.7c1.5,10.2-2.7,20.4-10.7,25.9
	c-15.2,10.5-27,26.2-33.3,45c-2.4,7.2-8,12.7-14.8,14.8c-30.4,9.2-52.8,39.6-52.8,75.6c0,9.7,1.6,19,4.6,27.6
	c4.6,13.3-1.3,27.9-13.3,33.4c-32.3,14.7-55,49.3-55,89.8c0,16.4,3.7,31.8,10.3,45.4c10,20.5,6.3,45.8-9.6,61.4
	c-22.3,22-36.4,53.8-36.4,89.1v43.8h598.1V1022c0-17.7-10.3-34.6-22.4-49.7c-13.2-16.5-14.1-40.5-3-58.7
	C945.9,896.9,951.9,876.8,951.9,855.2L951.9,855.2z"/>
<path class="st2" d="M297.2,932.2c9.4,15.3,8.6,35.6-2.5,49.4c-10.2,12.8-18.9,26.9-18.9,41.9v36.9h503.7v-36.9
	c0-29.8-11.8-56.6-30.6-75.1c-13.3-13.1-16.5-34.4-8.1-51.7c5.5-11.4,8.7-24.4,8.7-38.2c0-34.1-19.1-63.3-46.3-75.6
	c-10.1-4.6-15.1-16.9-11.2-28.1c2.5-7.2,3.9-15.1,3.9-23.2c0-30.4-18.8-56-44.5-63.7c-5.7-1.7-10.4-6.4-12.4-12.5
	c-5.2-15.8-15.2-29.1-28-37.9c-6.8-4.6-10.2-13.2-9-21.8c0.5-3.7,0.7-7.6,0.5-11.5c-1.6-24.8-19.9-45-42.7-47
	c-2.1-0.2-4.1-0.2-6.1-0.1c-6.2,0.3-11.4-4.6-12-11.3v-0.5c-1.9-19.5-16.7-34.9-34.7-36.2c-18.4-1.3-34.1,11.8-38.7,29.9
	c-1.7,6.7-5.8,12.3-11.5,15.4c-11.7,6.3-28.5,20.3-27.6,54.2c0.1,4.5,0.7,8.9,1.7,13.1c2,8.5-1.5,17.4-8.5,21.6
	c-13.7,8.2-23.3,18.3-25.5,36.7c-0.3,2.8-0.2,6.2,0.1,9.8c0.7,8.1-4.2,15.4-11.4,17.2c-27.4,6.6-47.9,33.2-47.9,65
	c0,4.8,0.5,9.4,1.3,13.9c3.1,16.1-3.6,32.5-16.4,41.2c-23.2,15.7-38.6,43.7-38.6,75.7C283.6,901.1,288.6,918.1,297.2,932.2
	L297.2,932.2z"/>
<path class="st1" d="M665.4,758c-13.5,31.1-6.8,43.3-4.1,77.1s-17.6,40.6-27.1,69s-2.7,41.9-5.4,77.1c-2.7,35.2-13.5,37.9-23,70.3
	c-9.5,32.5,0,77.1,6.8,138c4.2,37.7-5.6,107.4-13.7,155.1H474.8c9.6-90.2,23-235.3,14.8-267.4c-12.2-47.3,6.8-125.8,18.9-150.1
	c12.2-24.3,14.9-54.1,12.2-75.7c-2.7-21.6,9.5-29.8,24.3-46c14.9-16.2,14.9-51.4,21.6-81.2c6.8-29.8,36.5-41.9,40.6-67.6
	c4.1-25.7,68.3-73.7,86.6-53.4c19.9,22.1-18.3,48.7-22.3,73C667.5,700.6,679,726.9,665.4,758L665.4,758z"/>
<path class="st3" d="M665.4,758c-13.5,31.1-6.8,43.3-4.1,77.1s-17.6,40.6-27.1,69s-2.7,41.9-5.4,77.1c-2.7,35.2-13.5,37.9-23,70.3
	c-9.5,32.5,0,77.1,6.8,138c4.2,37.7-5.6,107.4-13.7,155.1h-79.2c5.2-51.5,9.6-107.7,7.7-135.9c-4.1-59.9-18.3-89.3-3-128.8
	c15.2-39.6,40.6-36.5,33.5-90.3s-6.1-89.3,30.4-127.8c36.5-38.6,12.2-77.1,14.2-108.6c2-31.4,29.4-38.6,34.5-70s6.1-39.6,56.8-80.1
	c19.9,22.1-18.3,48.7-22.3,73C667.5,700.6,679,726.9,665.4,758L665.4,758z"/>
<path class="st4" d="M431.1,1344.7c-38.7-89.5-65.2-238.4-61.9-278.9c4.1-50.7-27.4-139-42.6-180.6s-7.1-78.1-7.1-104.5
	s-28.4-42.6-40.6-75.1s11.2-54.8,11.2-83.2s-8.1-90.3,0-90.3c0,0,33.5,24.3,52.8,52.8c19.3,28.4,14.2,73,37.5,91.3
	s36.5,34.5,41.6,73c5.1,38.6,16.2,39.6,35.5,83.2s-7.1,79.1,3,126.8s32.5,43.6,69,126.8c25.9,59,18.1,188.4,11.4,258.6L431.1,1344.7
	L431.1,1344.7z"/>
<linearGradient id="SVGID_1_" gradientUnits="userSpaceOnUse" x1="5203.895" y1="507.2317" x2="5312.8242" y2="470.3367" gradientTransform="matrix(-1 0 0 -1 5617.1519 1440)">
	<stop  offset="0" style="stop-color:#246AFC"/>
	<stop  offset="1" style="stop-color:#5F48DC"/>
</linearGradient>
<path class="st5" d="M431.1,1344.7c-38.7-89.5-65.2-238.4-61.9-278.9c4.1-50.7-27.4-139-42.6-180.6s-7.1-78.1-7.1-104.5
	s-28.4-42.6-40.6-75.1s11.2-54.8,11.2-83.2s-8.1-90.3,0-90.3c9.1,50.7,38.6,53.8,39.6,92.3c1,38.6-19.3,56.8,15.2,87.2
	s26.4,40.6,35.5,98.4c9.1,57.8,53.1,65.5,45,119.6c-9.4,63-1.1,121.8,29.9,165.2c37.7,52.8,24.2,143.3,44.1,204.6
	c-0.6,18.2,1.3,33,4.6,45.1h-72.9L431.1,1344.7z"/>
<path class="st6" d="M9.1,594c16.2-2,52.8,29.4,69,49.7s59.9,23.3,78.1,54.8c18.3,31.4,5.1,58.8,52.8,84.2s75.6,55.4,112.6,113.6
	c28.4,44.6,63.9,129.9,69,179.6c5.1,49.7,32.5,98.4,65.9,149.1c18.5,28.1,25.5,79.4,28.1,119.6H405c-20.2-26.6-53.8-56-61.1-81.1
	c-10.1-34.5-4.1-90.3-26.4-123.8s-86.2-86.2-88.3-121.7c-2-35.5-41.6-76.1-73-95.4c-31.4-19.3-34.5-79.1-52.8-107.5
	s-57.8-40.6-59.9-73c-2-32.5-7.1-57.8-25.4-75.1C-0.1,649.8-7.2,596.1,9.1,594L9.1,594z"/>
<linearGradient id="SVGID_00000059282571226880708460000001072282018478956215_" gradientUnits="userSpaceOnUse" x1="5362.5981" y1="486.5199" x2="5490.3301" y2="443.2559" gradientTransform="matrix(-1 0 0 -1 5617.1519 1440)">
	<stop  offset="0" style="stop-color:#246AFC"/>
	<stop  offset="1" style="stop-color:#5F48DC"/>
</linearGradient>
<path style="opacity:0.26;fill:url(#SVGID_00000059282571226880708460000001072282018478956215_);enable-background:new    ;" d="
	M4.7,596.3l4.4-2.3c18.3,44.6,48.7,56.8,61.9,89.3s41.6,28.4,61.9,77.1c20.3,48.7,87.2,70,115.7,137c28.4,67,65.9,117.7,94.3,257.7
	c12.9,63.4,38.8,132.7,63.4,189.6H405c-20.2-26.6-53.8-56-61.1-81.1c-10.1-34.5-4.1-90.3-26.4-123.8s-86.2-86.2-88.3-121.7
	c-2-35.5-41.6-76.1-73-95.4c-31.4-19.3-34.5-79.1-52.8-107.5s-57.8-40.6-59.9-73c-2-32.5-7.1-57.8-25.4-75.1
	C1.9,651.6-5.5,607,4.7,596.3z"/>
<path class="st8" d="M354.7,1344.7c-17.2-36.6-29.1-78.7-29.1-104.4c0-42.6-3-99.4-18.3-120.7c-15.2-21.3-20.3-46.7-16.2-64.9
	c4.1-18.3-4.1-43.6-9.1-67c-5.1-23.3,1-38.6,1-38.6c7.1,15.2,13.2,16.2,27.4,35.5s8.1,28.4,28.4,58.8s38.6,61.9,45.7,99.4
	s35.5,77.1,59.9,112.6c17.1,25,28.1,56.1,34.6,89.2L354.7,1344.7L354.7,1344.7z"/>
<linearGradient id="SVGID_00000115504790761416472200000013193062510420192913_" gradientUnits="userSpaceOnUse" x1="5260.5889" y1="292.8326" x2="5323.4878" y2="271.5285" gradientTransform="matrix(-1 0 0 -1 5617.1519 1440)">
	<stop  offset="0" style="stop-color:#0D1D7E"/>
	<stop  offset="1" style="stop-color:#AFEBF2"/>
</linearGradient>
<path style="opacity:0.14;fill:url(#SVGID_00000115504790761416472200000013193062510420192913_);enable-background:new    ;" d="
	M354.7,1344.7c-17.2-36.6-29.1-78.7-29.1-104.4c0-42.6-3-99.4-18.3-120.7c-15.2-21.3-20.3-46.7-16.2-64.9c4.1-18.3-4.1-43.6-9.1-67
	c-5.1-23.3,1-38.6,1-38.6c5.7,50.4,24.7,45.7,28.1,75.4c3.4,29.8,3.4,50,18.3,70.3s13.5,46.7,33.8,95.4
	c20.3,48.7,57.5,94,64.2,127.1c1.4,6.7,2.9,16.3,4.6,27.3L354.7,1344.7L354.7,1344.7z"/>
<path class="st1" d="M139.9,979.5c8.1,18.3,34.5,30.4,74.1,47.7c39.6,17.2,58.7,29,94.3,85.2c19.3,30.4,42.6,79.1,58.8,149.1
	c7.4,32,17,61,25.1,83.1h-76.9v-6c0-48.7-68-103.5-84.2-146.1s-45.7-88.3-68-106.5c-22.3-18.3-51.7-67-54.8-95.4
	c-3-28.4-15.2-49.7-15.2-49.7C109.5,946.1,131.8,961.3,139.9,979.5L139.9,979.5z"/>
<path class="st3" d="M139.9,1022.1c16.2,30.4,42.6,16.2,89.3,58.8c46.7,42.6,24.3,46.7,65.9,110.6s48.7,89.3,55.8,138
	c0.7,4.5,1.7,9.6,2.9,15.1h-38.4v-6c0-48.7-68-103.5-84.2-146.1s-45.7-88.3-68-106.5c-22.3-18.3-51.7-67-54.8-95.4
	c-3-28.4-15.2-49.7-15.2-49.7C126.7,979.5,123.7,991.7,139.9,1022.1z"/>
<path class="st1" d="M1375.8,770.2c-16.1,30.5-8.1,42.4-4.8,75.5c3.2,33.1-21,39.7-32.3,67.6c-11.3,27.8-3.2,41.1-6.5,75.5
	c-3.2,34.4-16.1,37.1-27.4,68.9c-11.3,31.8,0,75.5,8.1,135.1c5,36.9-6.7,105.2-16.3,151.9h-148.1c11.4-88.4,27.5-230.5,17.6-261.9
	c-14.5-46.4,8.1-123.2,22.6-147s17.7-53,14.5-74.2s11.3-29.1,29-45s17.7-50.3,25.8-79.5c8.1-29.1,46.1-40.7,48.4-66.2
	c3.9-44.5,56.1-85,84.9-85c23.7,21.6-3.4,80.3-8.2,104.2C1378.2,713.9,1391.9,739.7,1375.8,770.2L1375.8,770.2z"/>
<linearGradient id="SVGID_00000074399476260350081020000004508908494153540519_" gradientUnits="userSpaceOnUse" x1="4177.7236" y1="507.0395" x2="4510.4385" y2="394.3455" gradientTransform="matrix(-1 0 0 -1 5617.1519 1440)">
	<stop  offset="0" style="stop-color:#246AFC"/>
	<stop  offset="1" style="stop-color:#5F48DC"/>
</linearGradient>
<path style="opacity:0.26;fill:url(#SVGID_00000074399476260350081020000004508908494153540519_);enable-background:new    ;" d="
	M1375.8,770.2c-16.1,30.5-8.1,42.4-4.8,75.5c3.2,33.1-21,39.7-32.3,67.6c-11.3,27.8-3.2,41.1-6.5,75.5
	c-3.2,34.4-16.1,37.1-27.4,68.9c-11.3,31.8,0,75.5,8.1,135.1c5,36.9-6.7,105.2-16.3,151.9h-94.4c6.2-50.4,11.4-105.4,9.1-133.1
	c-4.8-58.6-21.8-87.4-3.6-126.2c18.1-38.7,48.4-35.8,39.9-88.4c-8.5-52.7-7.3-87.4,36.3-125.2c43.5-37.8,14.5-75.5,16.9-106.3
	s35.1-37.8,41.1-68.5c6-30.8,2.6-68.9,49.4-111.1c23.7,21.6-3.4,80.3-8.2,104.2C1378.2,713.9,1391.9,739.7,1375.8,770.2
	L1375.8,770.2z"/>
<path class="st11" d="M1196.1,1344.5c18-72.9,15.6-194.2,6.1-227.2c-11.9-41.3,0.1-113.2,6.1-147.1c6-33.9-7-63.6-11.4-85.1
	s17.1-34.7,22-61.2c4.9-26.4-18.6-44.6-23.4-67.7c-4.7-23.1-8.2-73.5-15.1-73.5c0,0-24.4,19.9-36.1,43
	c-11.7,23.2,0.1,59.5-16.7,74.4c-16.8,14.9-25.3,28.1-23.2,59.5c2.1,31.4-7.2,32.2-16.3,67.8c-9.1,35.5,19.2,64.4,18.6,103.2
	c-0.7,38.8-20.3,35.6-37.5,103.3c-12.2,48.1,16,153.4,33.4,210.6L1196.1,1344.5L1196.1,1344.5z"/>
<linearGradient id="SVGID_00000067953229257345303150000000239194162018330499_" gradientUnits="userSpaceOnUse" x1="-529.7503" y1="406.8408" x2="-439.3753" y2="376.2299" gradientTransform="matrix(1.0252 -1.800000e-03 -0.2011 -0.9813 1767.4529 1407.4489)">
	<stop  offset="0" style="stop-color:#246AFC"/>
	<stop  offset="1" style="stop-color:#5F48DC"/>
</linearGradient>
<path style="opacity:0.26;fill:url(#SVGID_00000067953229257345303150000000239194162018330499_);enable-background:new    ;" d="
	M1196.1,1344.5c18-72.9,15.6-194.2,6.1-227.2c-11.9-41.3,0.1-113.2,6.1-147.1c6-33.9-7-63.6-11.4-85.1s17.1-34.7,22-61.2
	c4.9-26.4-18.6-44.6-23.4-67.7c-4.7-23.1-8.2-73.5-15.1-73.5c0.7,41.3-23.8,43.8-18.2,75.2c5.6,31.4,25.9,46.2,1.6,71.1
	c-24.3,24.8-15.7,33.1-13.8,80.2c1.9,47.1-34.3,53.4-18.3,97.4c18.5,51.2,21.2,99.2,2.1,134.6c-23.2,43.1,3.3,116.7-3.3,166.6
	c3.5,14.8,4.4,26.9,3.6,36.8L1196.1,1344.5L1196.1,1344.5z"/>
<path class="st4" d="M1538.3,721.9c-11.8-1.7-38.4,24.4-50.2,41.2c-11.8,16.8-43.5,19.4-56.8,45.4c-13.3,26.1-3.7,48.8-38.4,69.9
	c-34.7,21-55,46-81.9,94.3c-20.7,37-46.5,107.7-50.2,149c-3.7,41.2-23.6,81.6-48,123.7c-13.5,23.3-18.6,65.8-20.5,99.3h57.9
	c14.7-22.1,39.1-46.5,44.5-67.3c7.4-28.6,3-74.9,19.2-102.7c16.2-27.8,62.7-71.5,64.2-101s30.3-63.1,53.1-79.1
	c22.9-16,25.1-65.6,38.4-89.2c13.3-23.6,42.1-33.7,43.5-60.6c1.5-26.9,5.2-48,18.4-62.3C1544.9,768.2,1550.1,723.6,1538.3,721.9
	L1538.3,721.9z"/>
<linearGradient id="SVGID_00000065759189494827271140000014375744437447687331_" gradientUnits="userSpaceOnUse" x1="-387.3319" y1="425.3997" x2="-250.1859" y2="378.9478" gradientTransform="matrix(0.8768 0 0 -1 1670.0292 1439.998)">
	<stop  offset="0" style="stop-color:#246AFC"/>
	<stop  offset="1" style="stop-color:#5F48DC"/>
</linearGradient>
<path style="opacity:0.26;fill:url(#SVGID_00000065759189494827271140000014375744437447687331_);enable-background:new    ;" d="
	M1541.5,723.8l-3.2-1.9c-13.3,37-35.4,47.1-45,74.1c-9.6,26.9-30.3,23.6-45,64c-14.8,40.4-73.2,55.4-84.1,113.6
	c-12.9,68.5-80.1,59.7-77.6,188.1c1.1,56.1-38.8,61.3-58.3,110.1c-13.3,33.4-9.2,72.8-9.2,72.8h31.3c14.7-22.1,39.1-46.4,44.5-67.2
	c7.4-28.6,3-74.9,19.2-102.7c16.2-27.8,62.7-71.5,64.2-101s30.3-63.1,53.1-79.1c22.9-16,25.1-65.6,38.4-89.2
	c13.3-23.6,42.1-33.7,43.5-60.6c1.5-26.9,5.2-48,18.4-62.3C1543.5,769.7,1548.9,732.7,1541.5,723.8L1541.5,723.8z"/>
<path class="st1" d="M1483,1344.7c15.5-30.4,26.2-65.3,26.2-86.6c0-35.4,2.7-82.5,16.4-100.2c13.7-17.7,18.2-38.7,14.6-53.9
	c-3.6-15.2,3.6-36.2,8.2-55.5c4.6-19.4-0.9-32-0.9-32c-6.4,12.6-11.9,13.5-24.6,29.5c-12.8,16-7.3,23.6-25.5,48.8
	c-18.2,25.3-34.7,51.3-41,82.5c-6.4,31.1-31.9,64-53.8,93.4c-15.4,20.7-25.3,46.5-31.1,74L1483,1344.7L1483,1344.7z"/>
<linearGradient id="SVGID_00000011729133222104809930000010101814546299719329_" gradientUnits="userSpaceOnUse" x1="228.7287" y1="259.1008" x2="280.9097" y2="241.4267" gradientTransform="matrix(1.0835 0 0 -1 1233.51 1439.9969)">
	<stop  offset="0" style="stop-color:#0D1D7E"/>
	<stop  offset="1" style="stop-color:#AFEBF2"/>
</linearGradient>
<path style="opacity:0.14;fill:url(#SVGID_00000011729133222104809930000010101814546299719329_);enable-background:new    ;" d="
	M1483,1344.7c15.5-30.4,26.2-65.3,26.2-86.6c0-35.4,2.7-82.5,16.4-100.2c13.7-17.7,18.2-38.7,14.6-53.9c-3.6-15.2,3.6-36.2,8.2-55.5
	c4.6-19.4-0.9-32-0.9-32c-5.2,41.8-22.2,37.9-25.2,62.6s-3,41.5-16.4,58.4c-13.4,16.8-12.2,38.7-30.4,79.1
	c-18.2,40.4-51.7,78-57.8,105.5c-1.2,5.5-2.6,13.5-4.1,22.7L1483,1344.7L1483,1344.7z"/>
<path class="st6" d="M1039.5,1344.7c-15.3-43.1-25.8-92.5-25.8-122.8c0-50.1-2.7-116.9-16.2-142s-18-54.9-14.4-76.4
	s-3.6-51.3-8.1-78.8c-4.5-27.4,0.9-45.3,0.9-45.3c6.3,17.9,11.7,19.1,24.3,41.8s7.2,33.4,25.2,69.2c18,35.8,34.2,72.8,40.5,116.9
	c6.3,44.2,31.5,90.7,53.1,132.5c15.2,29.4,24.9,65.9,30.7,104.9H1039.5z"/>
<linearGradient id="SVGID_00000154393147866905744880000002130379753253150342_" gradientUnits="userSpaceOnUse" x1="4369.4463" y1="328.2083" x2="4441.8613" y2="303.6814" gradientTransform="matrix(-1.0638 0 0 -1 5690.9937 1439.995)">
	<stop  offset="0" style="stop-color:#0D1D7E"/>
	<stop  offset="1" style="stop-color:#AFEBF2"/>
</linearGradient>
<path style="opacity:0.14;fill:url(#SVGID_00000154393147866905744880000002130379753253150342_);enable-background:new    ;" d="
	M1039.5,1344.7c-15.3-43.1-25.8-92.5-25.8-122.8c0-50.1-2.7-116.9-16.2-142s-18-54.9-14.4-76.4s-3.6-51.3-8.1-78.8
	c-4.5-27.4,0.9-45.3,0.9-45.3c5.1,59.3,21.9,53.7,24.9,88.7s3,58.9,16.2,82.7c13.2,23.9,12,54.9,30,112.2
	c18,57.3,51,110.6,56.9,149.6c1.2,7.8,2.6,19.1,4.1,32.1L1039.5,1344.7L1039.5,1344.7z"/>
<path class="st6" d="M1475,1041.7c-6.5,15.1-27.7,25.2-59.5,39.6c-31.8,14.3-47.2,24.1-75.8,70.7c-15.5,25.2-34.2,65.6-47.3,123.7
	c-6,26.6-13.6,50.6-20.2,69h61.8v-5c0-40.4,54.6-85.8,67.7-121.2c13-35.3,36.7-73.2,54.6-88.4c17.9-15.2,41.6-55.5,44-79.1
	s12.2-41.2,12.2-41.2C1499.5,1014,1481.5,1026.6,1475,1041.7L1475,1041.7z"/>
<linearGradient id="SVGID_00000079468174755955074700000017706362600180023942_" gradientUnits="userSpaceOnUse" x1="-515.8021" y1="278.9944" x2="-403.9831" y2="241.1204" gradientTransform="matrix(0.8076 0 0 -1 1785.4244 1439.998)">
	<stop  offset="0" style="stop-color:#246AFC"/>
	<stop  offset="1" style="stop-color:#5F48DC"/>
</linearGradient>
<path style="opacity:0.26;fill:url(#SVGID_00000079468174755955074700000017706362600180023942_);enable-background:new    ;" d="
	M1475,1077.1c-13,25.3-34.2,13.5-71.8,48.8c-37.5,35.4-19.6,38.7-53,91.7s-39.1,74.1-44.9,114.5c-0.5,3.7-1.3,8-2.4,12.6h30.9v-5
	c0-40.4,54.6-85.8,67.7-121.2c13-35.3,36.7-73.2,54.6-88.4c17.9-15.2,41.6-55.5,44-79.1s12.2-41.2,12.2-41.2
	C1485.6,1041.7,1488,1051.8,1475,1077.1L1475,1077.1z"/>
<path class="st11" d="M1074.5,1329.4c-130.4-9.5-554.5,29.2-551.5-10.8c3.1-39.9-84.4-362.4-84.4-362.4S449,849.4,501.8,813
	c130.6-89.9,232.4-191.2,232.4-191.2c-0.8,47,20.8,134.6,43.8,219.1s52.2,159.7,59.9,159.7s47.6-152.1,66-218.1
	c15.7-56.4,22.6-129.6,24.2-149.8c30.4,32,105.8,87.6,162,117.1c62.5,32.8,80,71.6,80,71.6S1068.4,1272.5,1074.5,1329.4
	L1074.5,1329.4z"/>
<path class="st17" d="M928.2,632.7c-1.6,20.2-8.5,93.4-24.2,149.8c-18.4,66.1-58.3,218.1-66,218.1s-36.9-75.2-59.9-159.7
	s-44.6-172-43.8-219.1l182-2.9C918.6,622.3,922.7,627,928.2,632.7L928.2,632.7z"/>
<linearGradient id="SVGID_00000161616591777080943920000010008791235458278050_" gradientUnits="userSpaceOnUse" x1="-2528.1848" y1="331.0267" x2="-2305.8379" y2="199.6927" gradientTransform="matrix(-1 0 0 -1 -1784.175 1440)">
	<stop  offset="0" style="stop-color:#FFFFFF"/>
	<stop  offset="1" style="stop-color:#3D6ACC"/>
</linearGradient>
<path style="opacity:0.63;fill:url(#SVGID_00000161616591777080943920000010008791235458278050_);enable-background:new    ;" d="
	M581,928.8c131.3,49.5,213.1,119.8,213.1,119.8l1.6,306.3l-260.8-107L581,928.8z"/>
<linearGradient id="SVGID_00000054251424418558059990000008496309505854906757_" gradientUnits="userSpaceOnUse" x1="899.0054" y1="311.1217" x2="1145.9205" y2="165.2756" gradientTransform="matrix(1 0 0 -1 0 1440)">
	<stop  offset="0" style="stop-color:#FFFFFF"/>
	<stop  offset="1" style="stop-color:#3D6ACC"/>
</linearGradient>
<path style="opacity:0.63;fill:url(#SVGID_00000054251424418558059990000008496309505854906757_);enable-background:new    ;" d="
	M1088.8,902.8c-131.3,49.5-278.5,145.8-278.5,145.8l-3.5,364l266-99.9l22.5-140.4L1088.8,902.8L1088.8,902.8z"/>
<path class="st20" d="M928.2,632.7c-1.6,20.2-8.5,93.4-24.2,149.8c-17,60.8-52.2,194.6-63.6,215.4c11.5-13.2,61.8-72.5,85.1-124.4
	c26.5-58.8,31.1-73.7,31.1-73.7L929,773.3l30-11.5c0,0,12.3-45.3,9.5-89.8C952.2,656.7,938,643,928.2,632.7z M778.1,840.9
	c-23-84.5-44.6-172-43.8-219.1c0,0-18.2,15.3-43.9,37.4c-5.6,41.1-2.2,91.1-2.2,91.1l34.6,17.3l-23,27.6c0,0,20.7,71.4,50.7,118.7
	c26.1,41.2,73.3,76.5,84.9,84.9C824.9,986.6,799,917.6,778.1,840.9z"/>
<linearGradient id="SVGID_00000005948447803477510460000001053934829953820304_" gradientUnits="userSpaceOnUse" x1="736.3" y1="850.65" x2="915.4" y2="850.65" gradientTransform="matrix(1 0 0 -1 0 1440)">
	<stop  offset="0" style="stop-color:#F1A17F"/>
	<stop  offset="1" style="stop-color:#E87979"/>
</linearGradient>
<path style="fill:url(#SVGID_00000005948447803477510460000001053934829953820304_);" d="M740.5,516c0,0-0.7,81.4-4.2,106.7
	c0,0,66,40,92,40s87.1-42.1,87.1-42.1s-2.8-64.6-0.7-99.7L740.5,516z"/>
<path class="st22" d="M763.9,317.3c-21.1,13.6-37,41.7-34.2,94.1s-5,59.4,0,83.8c5,24.3,23.9,57.1,31.8,80.5
	c8,23.4,20.6,41.2,72.1,41.7c54.8,0.5,57.6-20.6,70.7-48.7c13.1-28.1,20.1-45.9,27.1-62.7c6.7-16,5.1-51,4.7-75.8
	c-0.5-24.8,9.4-59-6.1-85.6c-15.4-26.7-42.6-48.2-94.1-47.7C784.5,297.2,763.9,317.3,763.9,317.3z"/>
<g id="XMLID_6_">
	<path class="st23" d="M730.4,411.9c-18.3-10.8-39.3-5.2-44.9,21.3c-5.6,26.5-0.4,55.6,19.3,66.3s28,1.4,28,1.4L730.4,411.9
		L730.4,411.9z"/>
	<path class="st24" d="M732.1,475.1l-1.1-40.6c-2.1-2.1-10.9-10.2-20.6-7.5c-11.1,3.1-14.1,24.5-8.7,37.1
		C707,476.5,718.3,479.8,732.1,475.1L732.1,475.1z"/>
</g>
<path class="st23" d="M934.9,414.7c17.3-9.5,36.1-3,39.7,22.7c3.6,25.7-2.8,53.5-21.3,62.8s-25.6-0.1-25.6-0.1L934.9,414.7
	L934.9,414.7z"/>
<path class="st24" d="M929.8,475.3l3.3-39c2-1.9,10.5-9.3,19.2-6.2c10,3.6,11.5,24.3,5.9,36.1C952.7,477.9,942.1,480.5,929.8,475.3z
	"/>
<path class="st25" d="M770.1,553.8c-0.2-0.1-19.6-5.7-38.2-13.8c-15.5-6.7-12.8-36-10.2-64.4c0.8-8.9,1.6-17.3,1.9-25.1l4.2,0.1
	c-0.3,7.9-1.1,16.7-1.9,25.3c-2.4,25.6-5.1,54.6,7.6,60.1c18.3,7.9,37.5,13.5,37.7,13.6L770.1,553.8z"/>
<path class="st25" d="M731.6,463.7l0.2-21.7c-1.4-1.2-7.4-5.7-14.2-4.4c-7.8,1.5-10.4,12.8-6.9,19.7
	C714,464,721.9,465.9,731.6,463.7z"/>
<path class="st1" d="M732.6,458.2c-4.7-0.5-10.3-4.2-10.8-22c-0.3-12.2-14-30-14-30s-13.6-47.3-3.3-67.9
	c7.4-14.8,30.9-31.4,53.4-33.7c0,0,19.2-43.1,47.7-54.3c32.8-12.9,67.9,4.2,89.4,15s71.1,12.6,71.1,12.6s-9,76.3-14.6,95.5
	c-5.6,19.2-5,32.3-7.4,46.3s-1.9,37.3-7.5,37.8s-6.1,0.1-6.1,0.1s3.3-27.9,4.1-40c1.4-21.5-14.9-33.8-18.6-51.6
	c-3.7-17.8-8.1-27-8.1-27s-38.6,13.1-69.5,9.8c-30.9-3.3-73.4-23.9-73.4-23.9s-4.5,41.1-22.8,64.2
	C727.9,407.4,732.6,458.2,732.6,458.2L732.6,458.2z"/>
<path class="st1" d="M821,416.3c-28.7-4.6-51.7,0.1-67.5,3.8C762.6,397.2,807.8,391.7,821,416.3z M856.4,415.9
	c28.7-4.6,51.7,0.1,67.5,3.8C914.8,396.9,869.6,391.3,856.4,415.9z"/>
<path class="st26" d="M780.4,445.8c0,2.5,2,4.6,4.4,4.6s4.4-2,4.4-4.6c0-2.5-2-4.6-4.4-4.6C782.3,441.2,780.4,443.3,780.4,445.8z
	 M886.7,445.8c0,2.5,2,4.6,4.4,4.6s4.4-2,4.4-4.6c0-2.5-2-4.6-4.4-4.6S886.7,443.3,886.7,445.8z"/>
<path class="st27" d="M875.3,527c-0.2,9.6-17,21.5-38,21.5s-37.5-12.2-38-21.5c-0.7-13.5,16.8-5.6,37.7-5.6
	C858.1,521.4,875.7,513.5,875.3,527z"/>
<ellipse transform="matrix(0.3857 -0.9226 0.9226 0.3857 21.8402 1012.467)" class="st28" cx="771.2" cy="489.8" rx="25.4" ry="25.4"/>
<ellipse transform="matrix(0.2431 -0.97 0.97 0.2431 202.6106 1239.3978)" class="st28" cx="895.5" cy="489.9" rx="25.4" ry="25.4"/>
<linearGradient id="SVGID_00000011740334375092721290000013741803654565414786_" gradientUnits="userSpaceOnUse" x1="-9591.125" y1="8694.7598" x2="-9591.125" y2="8667.8252" gradientTransform="matrix(-3.1681 0.1309 -0.1309 -3.1681 -28405.5977 29214.8672)">
	<stop  offset="0" style="stop-color:#F1A17F"/>
	<stop  offset="1" style="stop-color:#E87979"/>
</linearGradient>
<path style="fill:url(#SVGID_00000011740334375092721290000013741803654565414786_);" d="M842.7,414.4l28,73.3
	c1.8,5.1-2,10.5-7.5,10.4l-43.9-0.4l13.4-83.8L842.7,414.4L842.7,414.4z"/>
<path class="st30" d="M837.6,493.4c0-3.6-2.9-6.4-6.5-6.4s-6.4,2.9-6.4,6.5L837.6,493.4z"/>
<circle class="st26" cx="781.1" cy="553" r="19.8"/>
<g id="XMLID_1_">
	<path class="st1" d="M719.1,923.3c-2.3,15.3-16.7,25.9-32,23.5c-15.3-2.3-25.9-16.7-23.5-32c2.3-15.3,16.7-25.9,32-23.5
		S721.5,908,719.1,923.3z"/>
	<circle class="st31" cx="691.4" cy="919.1" r="24.4"/>
	<path class="st32" d="M945.1,1045.3c-8.7,0-20.5-0.9-32.1-4.8c-33.7-11.3-30.2-82-23.4-142.3c0.4-3.1,0.7-5.8,0.9-7.8
		c0.2-2.3,2.3-4,4.6-3.8s4,2.3,3.8,4.6c-0.2,2.1-0.5,4.8-0.9,7.9c-3.4,30.4-13.9,122.7,17.7,133.3c20,6.7,41.4,3.7,41.6,3.7
		c2.3-0.3,4.5,1.3,4.8,3.6c0.3,2.3-1.3,4.4-3.6,4.8C958,1044.6,952.8,1045.3,945.1,1045.3L945.1,1045.3z M981.9,1044.2
		c-2.2,0-4.1-1.7-4.2-4c-0.1-2.3,1.7-4.3,4-4.4c1.4-0.1,2.9-0.1,4.5-0.2c23.8-0.9,45.3-4,47.5-31.9c2.1-27.7-3.6-66.9-7.8-95.5
		c-1.3-8.9-2.5-17.3-3.4-24.2c-0.3-2.3,1.4-4.4,3.7-4.7c2.3-0.3,4.4,1.4,4.7,3.7c0.8,6.8,2,15.1,3.3,24c4.5,30.6,10.1,68.6,7.9,97.3
		c-2.9,37.7-37.1,39-55.6,39.7c-1.5,0.1-3,0.1-4.4,0.2L981.9,1044.2L981.9,1044.2z"/>
	<path class="st1" d="M691,923.9c-2.6,0-4.8-1.9-5.2-4.5c-0.1-0.4-6-42.5-7.2-90.7c-0.1-3.7-0.2-7.7-0.3-11.9
		c-1.7-52.2-4.7-149.3,49.3-206.7c2-2.1,5.3-2.2,7.5-0.2c2.1,2,2.2,5.3,0.2,7.5c-51,54.2-48.1,148.5-46.5,199.1
		c0.1,4.3,0.3,8.3,0.4,12c1.1,47.6,7,89,7.1,89.5c0.4,2.9-1.6,5.6-4.5,6C691.5,923.8,691.2,923.9,691,923.9z M962.5,796h-0.3
		c-2.9-0.2-5.1-2.6-5-5.6c0-0.3,1.8-34.8,0-68.7l-0.1-2.2c-1.8-33.4-3.5-65-39.7-97.2c-2.2-1.9-2.4-5.3-0.4-7.5
		c1.9-2.2,5.3-2.4,7.5-0.4c39.5,35.2,41.3,70.4,43.2,104.5l0.1,2.1c1.9,34.5,0,69.5,0,69.8C967.6,793.9,965.3,796,962.5,796
		L962.5,796z"/>
	<path class="st1" d="M894.6,900.6h-0.2c-2.9-0.1-5.2-2.6-5.1-5.5c1.2-28.8,7.6-54.9,18.1-73.5c13.3-23.5,33.1-35.8,57.4-35.4
		c25.4,0.4,45.2,18.8,57.2,53.3c8.7,25,10.4,49.6,10.5,50.6c0.2,2.9-2,5.4-4.9,5.6c-2.9,0.2-5.4-2-5.6-4.9
		c-0.1-0.9-6.6-93.3-57.3-94c-20.5-0.3-36.6,9.8-48.1,30.1c-9.7,17.2-15.7,41.6-16.8,68.8C899.8,898.4,897.4,900.6,894.6,900.6
		L894.6,900.6z"/>
	<path class="st33" d="M964.9,1038.2c0.5,6.8-1.6,8.8-8.3,8.6c-6-0.2-9.3-0.9-9.3-0.9l-0.4-9.8c0,0,7.5-2.9,11.5-2.3
		C961.9,1034.4,964.7,1035.6,964.9,1038.2L964.9,1038.2z M969.9,1037.9c-0.1,6.9,2.1,8.7,8.9,8.1c5.9-0.5,9.2-1.5,9.2-1.5l-0.3-9.8
		c0,0-7.7-2.4-11.6-1.6C972.6,1033.9,969.9,1035.3,969.9,1037.9L969.9,1037.9z"/>
</g>
<path class="st11" d="M467.9,854c-23.1,45-71.8,247.8-81.1,318.2s-24.3,148.1,3.7,170.6c28.1,22.5,207.8,12.2,250.9,11.2
	c43.1-0.9,104.8-4,104.8-4s4.7-106.5,1.9-106.5s-74.9-16.8-110.5-23.4s-97.3-19.7-97.3-19.7s16.4-60.9,26.2-104.6
	c10.5-47,18.3-108.8,18.3-108.8s3.3-30-37.9-75.8C505.6,865.4,467.9,854,467.9,854L467.9,854z M1170.2,821.4
	c24.3,51.5,62.7,206.9,82.4,293c19.7,86.1,36.5,200.3,14,220s-87.1,24.3-124.5,26.2s-87.1,0.7-87.1,0.7l13.3-132.7l47.5-9.4
	c0,0-8.3-17.3-20-49.7c-6.3-17.5-5.5-65.6-7.2-92.6c-4.2-68.1-6.6-114.7-2.8-150.2C1089.7,891.1,1170.2,821.4,1170.2,821.4
	L1170.2,821.4z"/>
<linearGradient id="SVGID_00000061471794969867425500000010860660712363608245_" gradientUnits="userSpaceOnUse" x1="1153.1045" y1="308.2152" x2="1088.5165" y2="208.9932" gradientTransform="matrix(1 0 0 -1 0 1440)">
	<stop  offset="0" style="stop-color:#FFFFFF"/>
	<stop  offset="1" style="stop-color:#3D6ACC"/>
</linearGradient>
<path style="opacity:0.63;fill:url(#SVGID_00000061471794969867425500000010860660712363608245_);enable-background:new    ;" d="
	M1115.9,1219.2c31.8-8.4,77.7-17.8,98.3-10.3c0,0-4.7-56.2-38.4-123.6c-33.7-67.4-64.6-59-64.6-59s-25.3,29.7-22.5,59.7
	s-0.9,67.6,6.6,86.4C1102.8,1191.1,1115.9,1219.2,1115.9,1219.2z"/>
<linearGradient id="SVGID_00000165208933491202933220000008985492510019026057_" gradientUnits="userSpaceOnUse" x1="487.4126" y1="291.9718" x2="554.3076" y2="235.4408" gradientTransform="matrix(1 0 0 -1 0 1440)">
	<stop  offset="0" style="stop-color:#FFFFFF"/>
	<stop  offset="1" style="stop-color:#3D6ACC"/>
</linearGradient>
<path style="opacity:0.63;fill:url(#SVGID_00000165208933491202933220000008985492510019026057_);enable-background:new    ;" d="
	M541.5,1200.5c-43.1,8.4-109.9,55.2-124.8,73.9c0,0,3.7-71.1,28.1-159.1c24.3-88,72.1-117,94.5-107.6c22.5,9.4,34.9,48.9,34.9,48.9
	s-7.4,40-17.2,79C547.2,1174.1,541.5,1200.5,541.5,1200.5L541.5,1200.5z"/>
<path class="st22" d="M747.6,1248.2c-16.8,16.8-18.7,44-16.8,59.9s10.5,33.5,10.5,33.5l42.8,8.4l35.1-94.8c0,0-15-7.7-36.5-7.7
	C761.1,1247.5,747.6,1248.2,747.6,1248.2z"/>
<path class="st1" d="M823.9,1277.8c-2.1,0-4-1.2-4.9-3.2l-48.7-115.1c-1.1-2.7,0.1-5.8,2.8-6.9s5.8,0.1,6.9,2.8l48.7,115.1
	c1.1,2.7-0.1,5.8-2.8,6.9C825.2,1277.7,824.5,1277.8,823.9,1277.8L823.9,1277.8z M899.7,1187.5c0-0.7,1.2-3.7,2.5-6.7
	c1.6-3.7,5-6.4,9-6.9l63.8-7.8c3.4-0.4,6.6,1.8,7.4,5.1l1.9,7.7L899.7,1187.5L899.7,1187.5z"/>
<path class="st36" d="M847.2,1192.6l219.1-28.3c6.1-0.8,10.8,5.2,8.7,10.9l-77.1,208.4c-5,13.4-16.9,23.1-31.1,25l-222.4,30.7
	c-6.1,0.8-11-5.2-8.8-11l80.2-211.1C820.9,1203.9,833,1194.4,847.2,1192.6L847.2,1192.6z"/>
<path class="st1" d="M997.8,1383.7l77.1-208.4c0.8-2.1,0.6-4.3-0.2-6.1c-1.3-0.6-2.8-0.8-4.3-0.6l-219.1,28.3
	c-14.2,1.8-26.3,11.3-31.4,24.7l-80.2,211.1c-0.8,2.1-0.7,4.3,0.2,6.2c1.3,0.6,2.8,0.8,4.4,0.6l222.4-30.7
	C980.9,1406.7,992.9,1397.1,997.8,1383.7L997.8,1383.7z"/>
<path class="st22" d="M1056.5,1225.8c0,0,18.3,7.7,22.5,16.1s7.7,26,3.5,56.2c-4.6,32.9-12.6,46.3-12.6,46.3s-51.2,14-87.8,8.4
	c-36.5-5.6-73.7-15.4-73.7-24.6c0-9.1,27.4-7,27.4-7s-34.4-0.7-34.4-13.3c0-12.6,38.6-7.7,38.6-7.7s-48.4-3.5-47-17.6
	c1.4-14,50.5-5.6,50.5-5.6s-42.8-4.2-40-16.8c2.8-12.6,28.8-6.3,47-4.9c18.3,1.4,77.2,4.9,85.6,1.4
	C1044.5,1253.1,1056.5,1225.8,1056.5,1225.8z"/>
</svg>
